<svg width="475" height="547" viewBox="0 0 475 547" fill="none" xmlns="http://www.w3.org/2000/svg">
<g clip-path="url(#clip0_316_46)">
<path d="M355.48 0.31V99.64C355.33 106.25 355.2 112.84 355.05 119.46H118.17V546.54H0V26.7C0 11.95 11.96 0 26.71 0C57.31 0.1 87.9 0.2 118.49 0.31H355.48Z" fill="white"/>
<path d="M474.04 427V546.14H355.55V427.08H355.48V372.07C461.04 273.79 471.15 146.11 472.6 119.46H473.65V427H474.04Z" fill="white"/>
<path d="M472.6 119.46C471.15 146.11 461.04 273.79 355.48 372.07V371.09C334.61 389.39 306.54 410.37 270.68 428.72C237.01 445.91 204.69 456.57 176.29 463.18H176.24C154.1 468.35 134.34 471.07 118.17 472.52V354.1C137.38 355.47 211.1 357.97 275.57 304.68C358.55 236.05 355.55 133.31 355 121.48C355.03 120.8 355.03 120.13 355.05 119.46H472.6Z" fill="white"/>
</g>
<defs>
<clipPath id="clip0_316_46">
<rect width="474.04" height="546.54" fill="white"/>
</clipPath>
</defs>
</svg>
