<svg width="246" height="52" viewBox="0 0 246 52" fill="none" xmlns="http://www.w3.org/2000/svg">
<g clip-path="url(#clip0_303_148)">
<path d="M9.55157 0.0253906V9.62754H0V44.1671H9.55157V9.65283H28.6945C28.7053 9.11817 28.7161 8.58713 28.727 8.05247V0.0253906H9.55157Z" fill="#6CA651"/>
<path d="M9.57686 0V9.62744H0V9.57325C0 4.29171 4.29171 0 9.57686 0Z" fill="#6CA651"/>
<path d="M38.3112 34.5068H28.7344V44.1343H38.3112V34.5068Z" fill="#6CA651"/>
<path d="M38.2786 9.65234H38.1955C38.0799 11.8054 37.2634 22.1229 28.7306 30.0668V34.5139H38.2786" fill="#6CA651"/>
<path d="M38.1919 9.65234C38.0763 11.8054 37.2599 22.1229 28.727 30.0668V29.9874C27.04 31.4649 24.7713 33.1628 21.874 34.6439C19.1538 36.0348 16.5419 36.8946 14.2479 37.4292H14.2443C12.4561 37.8483 10.8594 38.065 9.55162 38.1842V28.6146C11.105 28.7266 17.0621 28.9289 22.2714 24.6227C28.9763 19.0775 28.7342 10.7722 28.6909 9.81852C28.6909 9.76433 28.6909 9.71014 28.6945 9.65596H38.1955L38.1919 9.65234Z" fill="#BBCB2E"/>
<path d="M81.9041 35.4854H64.6361L61.2331 43.4764H54.6221L70.1633 8.94043H76.478L92.0698 43.4764H85.3613L81.9077 35.4854H81.9041ZM79.7835 30.4531L73.2701 15.3563L66.8072 30.4531H79.7835Z" fill="#6CA651"/>
<path d="M121.772 17.1334V39.4843C121.378 41.4206 120.251 45.398 116.765 48.1544C111.404 52.3919 102.622 52.027 95.4187 46.7419L98.175 42.8548C98.6844 43.198 105.151 47.4102 111.675 44.4804C114.562 43.1835 116.241 41.0377 117.047 39.8166C116.567 39.477 116.086 39.1375 115.606 38.7979C114.554 39.9503 113.272 40.8209 111.758 41.4134C110.245 42.0058 108.583 42.3021 106.777 42.3021C104.277 42.3021 102.015 41.7674 99.9921 40.6981C97.9691 39.6288 96.3724 38.1259 95.2055 36.1824C94.0387 34.2425 93.4534 32.0207 93.4534 29.5209C93.4534 27.021 94.0387 24.8101 95.2055 22.8846C96.3724 20.9591 97.9691 19.4708 99.9921 18.4195C102.015 17.3683 104.277 16.8408 106.777 16.8408C108.684 16.8408 110.418 17.1551 111.982 17.7765C113.543 18.4014 114.851 19.3552 115.905 20.6376V17.1334H121.776H121.772ZM113.456 34.9686C114.952 33.5705 115.699 31.7534 115.699 29.5172C115.699 27.2811 114.952 25.5218 113.456 24.1382C111.961 22.7582 110.042 22.0646 107.709 22.0646C105.375 22.0646 103.41 22.7546 101.91 24.1382C100.415 25.5182 99.667 27.3136 99.667 29.5172C99.667 31.7209 100.415 33.5705 101.91 34.9686C103.406 36.3666 105.339 37.0639 107.709 37.0639C110.078 37.0639 111.961 36.3666 113.456 34.9686Z" fill="#6CA651"/>
<path d="M145.106 16.8374V22.7078C144.578 22.6103 144.101 22.5597 143.675 22.5597C141.273 22.5597 139.398 23.2605 138.05 24.655C136.703 26.053 136.027 28.0688 136.027 30.6987V43.4763H129.861V17.1336H135.731V20.981C137.508 18.2174 140.633 16.8374 145.106 16.8374Z" fill="#6CA651"/>
<path d="M154.729 42.0965C152.591 40.9441 150.922 39.3438 149.722 37.2846C148.519 35.2291 147.92 32.9026 147.92 30.3052C147.92 27.7078 148.519 25.3885 149.722 23.3474C150.922 21.3099 152.591 19.7132 154.729 18.5608C156.868 17.4084 159.267 16.834 161.933 16.834C164.599 16.834 167.048 17.4084 169.187 18.5608C171.325 19.7132 172.994 21.3063 174.194 23.3474C175.393 25.3885 175.993 27.7078 175.993 30.3052C175.993 32.9026 175.393 35.2327 174.194 37.2846C172.991 39.3402 171.325 40.9441 169.187 42.0965C167.048 43.2489 164.631 43.8233 161.933 43.8233C159.234 43.8233 156.868 43.2489 154.729 42.0965ZM167.554 36.2767C169.035 34.7631 169.776 32.7725 169.776 30.3052C169.776 27.8378 169.035 25.8473 167.554 24.3336C166.073 22.82 164.198 22.065 161.929 22.065C159.66 22.065 157.793 22.8236 156.33 24.3336C154.867 25.8473 154.133 27.8378 154.133 30.3052C154.133 32.7725 154.863 34.7631 156.33 36.2767C157.793 37.7904 159.66 38.5454 161.929 38.5454C164.198 38.5454 166.073 37.7904 167.554 36.2767Z" fill="#6CA651"/>
<path d="M205.84 17.1338L194.54 43.4801C194.522 43.4801 191.628 43.4801 191.61 43.4801C191.585 43.4801 188.2 43.4801 188.174 43.4801C184.406 34.698 180.642 25.9159 176.874 17.1338H183.286L191.476 36.6704L199.911 17.1338H205.832H205.84Z" fill="#6CA651"/>
<path d="M215.456 7.70166C215.597 7.95093 216.706 10.0065 215.738 12.3185C214.86 14.4138 212.938 15.1291 212.628 15.241C212.545 15.1254 211.038 12.9724 212.061 10.5303C212.996 8.30134 215.232 7.75224 215.453 7.70166H215.456ZM209.687 17.134H215.854V43.4803H209.687V17.134Z" fill="#6CA651"/>
<path d="M242.915 19.6268C244.971 21.4872 246 24.2906 246 28.0404V43.484H240.177V40.2761C239.418 41.4285 238.342 42.3063 236.944 42.9168C235.546 43.5238 233.858 43.8308 231.886 43.8308C229.914 43.8308 228.187 43.4949 226.706 42.8193C225.224 42.1438 224.083 41.2081 223.277 40.0087C222.472 38.8094 222.067 37.4511 222.067 35.9374C222.067 33.5676 222.949 31.671 224.708 30.2404C226.467 28.8099 229.238 28.0946 233.02 28.0946H239.83V27.7008C239.725 24.9733 238.566 23.8029 238.175 23.4561C235.762 21.3066 230.499 21.9352 226.005 26.086C225.156 24.9878 224.307 23.886 223.462 22.7877C224.097 21.9532 227.826 17.2244 234.007 16.8451C235.047 16.7801 239.581 16.6211 242.912 19.634L242.915 19.6268ZM237.294 38.2747C238.493 37.5667 239.342 36.5552 239.834 35.2402V32.1804H233.468C229.917 32.1804 228.14 33.3472 228.14 35.6845C228.14 36.8044 228.584 37.6895 229.473 38.3506C230.362 39.0081 231.593 39.3368 233.172 39.3368C234.751 39.3368 236.091 38.9828 237.29 38.2747H237.294Z" fill="#6CA651"/>
</g>
<defs>
<clipPath id="clip0_303_148">
<rect width="246" height="51.0489" fill="white"/>
</clipPath>
</defs>
</svg>
